<svg id="Color" xmlns="http://www.w3.org/2000/svg" viewBox="0 0 613.31 608.61"><defs><style>.cls-1,.cls-8{fill:#f8991d;}.cls-1{stroke:#c67a29;stroke-width:5.32px;}.cls-2,.cls-9{fill:#fff;}.cls-3,.cls-5,.cls-6{fill:none;}.cls-4{fill:#9e90ba;}.cls-5{stroke:#fff;stroke-width:2px;}.cls-6{stroke:#5f4f7e;stroke-width:2.25px;}.cls-7{fill:#5f4f7e;}.cls-9{fill-rule:evenodd;}</style></defs><title>seal</title><path class="cls-1" d="M263.47,7.42c25,9.1,66,9.1,91.06,0s58.74.8,74.89,22S480,72.75,506,78.63s49,32.43,51.11,59,19.15,63.84,37.83,82.84,23.67,53.76,11.11,77.25-18.4,64-13,90.13-9.15,58-32.42,71S510.57,502.76,501,527.65s-39.07,43.87-65.66,42.2-65.9,9.87-87.37,25.65-56.58,15.79-78,0-60.78-27.33-87.37-25.65-56.14-17.31-65.66-42.2S80.58,471.8,57.31,458.83s-37.86-44.91-32.42-71-.39-66.64-13-90.13S4.36,239.45,23,220.46s35.7-56.27,37.83-82.84S86,84.52,112,78.63s60.46-28,76.6-49.23S238.42-1.68,263.47,7.42Z" transform="translate(-2.34 -1.38)"/><circle class="cls-2" cx="306.22" cy="300.52" r="256.37"/><circle class="cls-3" cx="308.29" cy="300.52" r="261.11"/><circle class="cls-4" cx="306.23" cy="300.52" r="182.06"/><circle class="cls-5" cx="306.23" cy="300.52" r="266.69"/><circle class="cls-6" cx="306.23" cy="300.52" r="171.47"/><path class="cls-7" d="M104.88,235.08l.68-1.68c4.84.3,8.06-1.35,9.43-4.76,1.15-2.84.21-5.73-2.2-6.7-6.42-2.59-11.78,11.32-20.31,7.88-4.13-1.67-5.56-6.45-3.49-11.58,1.34-3.32,3.5-5.45,3.76-6.09a1.33,1.33,0,0,0-.09-1.14l.37-.9,7.31,2-.7,1.72c-3.87-.46-7.27,1.37-8.6,4.69-1,2.41-.41,4.74,1.27,5.42,4,1.6,7.58-5.25,14.35-8.13a8.25,8.25,0,0,1,6.68-.16c4.48,1.81,6.38,7.28,4.31,12.41-1.39,3.45-4,6-4.35,6.81a1.05,1.05,0,0,0,.32,1.18l-.45,1.12Z" transform="translate(-2.34 -1.38)"/><path class="cls-7" d="M130.67,184a36.14,36.14,0,0,1,6,6.52,9.44,9.44,0,0,0-1.67,2.2c-1.1,1.88-1.56,4.31-3.32,7.31-4.82,8.21-14.24,11.25-21.49,7S101,192.57,106,184c2.44-4.17,5.68-5.93,6.15-6.73a1.14,1.14,0,0,0,.07-1l.59-1,7.22,3.75-.92,1.56c-4.72-1-8.63.48-10.89,4.33-3.36,5.73-1.36,12.23,5,15.95s14,2.29,17.36-3.44c2.16-3.69,1.82-8-.86-11.76Z" transform="translate(-2.34 -1.38)"/><path class="cls-7" d="M152.53,167.45c1.6-1.87,1.45-3.34-.46-5l-6.29-5.37-10,11.66,6.36,5.43c1.87,1.6,3.28,1.52,5-.46l.45-.53,1.38,1.18-9.68,11.34-1.38-1.18.51-.6c1.54-1.8,1.42-3.31-.35-4.81l-14.06-12c-1.77-1.51-3.24-1.42-4.84.45l-.48.57L117.34,167,127,155.63l1.38,1.18-.42.49c-1.57,1.84-1.75,3.27.23,5l5.55,4.73,10-11.66-5.44-4.64c-2-1.69-3.35-1.51-5.1.53l-.27.32-1.38-1.18,9.65-11.3,1.38,1.18-.54.64c-1.54,1.8-1.59,3.22.32,4.85l14,11.94c1.84,1.57,3.22,1.59,5-.46l.48-.57,1.38,1.18-9.65,11.3-1.38-1.18Z" transform="translate(-2.34 -1.38)"/><path class="cls-7" d="M159.89,122c7.53-6.12,16.7-5.74,22.18,1,5.21,6.42,4.93,16.16-3.68,23.16-8.29,6.74-17.42,5.36-22.35-.69C150.25,138.3,151.85,128.5,159.89,122ZM178,143.9c5-4.07,3.84-10.3-.21-15.27-4.72-5.8-12-8.87-17.47-4.41-4.58,3.72-4.7,9.68-.27,15.13C165.61,146.23,172.88,148,178,143.9Z" transform="translate(-2.34 -1.38)"/><path class="cls-7" d="M194.88,98.48c8.5-4.69,17.46-2.69,21.65,4.92,4,7.24,2,16.78-7.72,22.14-9.35,5.16-18.1,2.19-21.87-4.64C182.5,112.86,185.81,103.49,194.88,98.48Zm13.9,24.79c5.65-3.12,5.6-9.46,2.5-15.07-3.61-6.55-10.23-10.85-16.41-7.44-5.16,2.85-6.34,8.7-2.95,14.84C196.21,123.38,203,126.44,208.78,123.28Z" transform="translate(-2.34 -1.38)"/><path class="cls-7" d="M250.19,107.22l-23.46,8.32-.61-1.71.74-.26c2.8-1,3.28-2.3,2.51-4.44l-6.21-17.51c-.92-2.58-2.61-2.62-4.58-1.92l-.83.3-.61-1.71L232,83l.61,1.71-1.27.45c-2.28.81-2.88,2.16-2.15,4.21l6.4,18c.57,1.62,1.2,1.84,2.9,1.24l5.56-2c2.93-1,3.3-2.8,4.89-7.6l1.75-.62Z" transform="translate(-2.34 -1.38)"/><path class="cls-7" d="M276.53,99.79c2.42-.42,3.25-1.65,2.82-4.12l-1.42-8.14-15.1,2.64,1.44,8.24c.42,2.42,1.56,3.26,4.12,2.82l.69-.12.31,1.78-14.69,2.56-.31-1.78.78-.14c2.33-.41,3.2-1.64,2.8-3.93l-3.18-18.21c-.4-2.29-1.59-3.16-4-2.74l-.73.13L249.73,77l14.69-2.56.31,1.78-.64.11c-2.38.41-3.43,1.4-3,4l1.25,7.18,15.1-2.64-1.23-7c-.45-2.56-1.61-3.3-4.27-2.84l-.41.07-.31-1.78,14.64-2.56.31,1.78-.82.14c-2.33.41-3.28,1.47-2.85,3.94l3.16,18.12c.42,2.38,1.47,3.28,4.12,2.82l.73-.13.31,1.78-14.64,2.56-.31-1.78Z" transform="translate(-2.34 -1.38)"/><path class="cls-7" d="M312.12,69.46c9.71.16,16.48,6.35,16.34,15-.13,8.27-6.61,15.55-17.71,15.37-10.68-.17-16.79-7.1-16.67-14.9C294.22,75.76,301.76,69.29,312.12,69.46Zm-.28,28.42c6.45.11,9.56-5.42,9.67-11.83.12-7.48-3.48-14.5-10.54-14.62-5.9-.1-9.83,4.39-9.94,11.4C300.88,91.71,305.29,97.77,311.84,97.88Z" transform="translate(-2.34 -1.38)"/><path class="cls-7" d="M358.83,75.62l11.81,2.27-.34,1.78-.32-.06c-3.65-.7-4.5.79-4.92,3l-2.18,11.36c-2,10.17-9.71,10.67-15.14,9.62C339.53,102,335,97.43,336.35,90.45L339,76.86c.44-2.28,0-3.22-2.6-3.71l-.77-.15.34-1.78L350.21,74l-.34,1.78-.77-.15c-1.92-.37-3.4.24-3.83,2.48l-2.61,13.59c-1.07,5.56,2.67,8.27,6.82,9.07,6,1.15,9.59-1.66,10.55-6.67L362.15,83c.62-3.24,0-4.87-2.84-5.42l-.82-.16Z" transform="translate(-2.34 -1.38)"/><path class="cls-7" d="M370.74,99.5l1.71.61c-.09,4.85,1.7,8,5.16,9.22,2.89,1,5.73,0,6.6-2.49,2.31-6.52-11.82-11.28-8.75-20,1.49-4.2,6.21-5.83,11.42-4,3.37,1.19,5.59,3.26,6.25,3.5a1.33,1.33,0,0,0,1.13-.14l.92.33L393.5,94l-1.75-.62c.29-3.89-1.68-7.2-5.06-8.39-2.45-.87-4.75-.21-5.36,1.5-1.43,4,5.58,7.35,8.74,14a8.26,8.26,0,0,1,.45,6.66c-1.61,4.55-7,6.68-12.21,4.84-3.5-1.24-6.2-3.78-7-4.05a1.06,1.06,0,0,0-1.17.37l-1.14-.4Z" transform="translate(-2.34 -1.38)"/><path class="cls-7" d="M421.74,102l-9-4.67-4.8,9.28,6.68,3.46c2.27,1.17,3.5.82,4.63-1.37l1.65.85-4.24,8.21-1.65-.85c1.15-2.23,1-3.25-2.18-4.89l-6.06-3.14-3.84,7.43c-.92,1.77-.78,2.32.42,2.93l6.89,3.56c2.68,1.39,4.34,1.31,6.92-1.75l1.57.81-3.84,6.22L390,115.25l.83-1.61,1.69.87c2.39,1.24,3.71.72,4.75-1.31l8.51-16.46c1.15-2.23.81-3.4-2-4.87l-.41-.21.83-1.61,22.73,11.75-2.68,6.2-1.57-.81C423.71,104.18,423.64,103,421.74,102Z" transform="translate(-2.34 -1.38)"/><path class="cls-7" d="M443.1,142c-1.38,1.75-1.59,3.13,1,5.2l.55.43-1.12,1.42-12.42-9.83,1.12-1.42.91.72c2.19,1.73,3.55,1.21,4.84-.43l4-5.06.41-16.61c0-2.22-.14-2.89-2-4.33l-.25-.2,1.12-1.42,11.87,9.39-1.12,1.42-.44-.35c-2.11-1.67-3.1-1-3.11.56l-.25,12.3,9.47-3.29c2.13-.74,3.54-1.93,1-4l-.44-.35,1.12-1.42,8.6,6.8L466.91,133c-2.23-1.53-3.16-1.62-6.06-.65L447,137Z" transform="translate(-2.34 -1.38)"/><path class="cls-7" d="M483.51,146.73c6.56,7.16,6.71,16.34.31,22.2-6.1,5.58-15.84,5.88-23.34-2.31-7.21-7.88-6.38-17.08-.63-22.35C466.63,138.06,476.51,139.09,483.51,146.73Zm-20.84,19.33c4.36,4.76,10.51,3.22,15.24-1.1,5.52-5,8.14-12.49,3.38-17.7-4-4.35-9.94-4.12-15.12.62C459.62,153.86,458.25,161.23,462.67,166.06Z" transform="translate(-2.34 -1.38)"/><path class="cls-7" d="M502.15,202.23c-1.37-2-2.45-2.35-4.24-1.19l-5.82,3.74a31.88,31.88,0,0,1-9-8.62c-6.35-9.89-3.9-18.19,3.6-23,7.15-4.59,16.22-2.08,21.56,6.25,2.58,4,3.22,8,4.08,9.36a1.54,1.54,0,0,0,1.26.85l.63,1-7.15,4.59-1-1.56a9.48,9.48,0,0,0,1.14-12.15c-3.56-5.55-10.4-6.57-16.73-2.5s-8.59,11.2-5.1,16.64a10.48,10.48,0,0,0,3.7,3.53l5.39-3.46c2-1.26,1.86-2.35-.62-6.39l1.48-1,8.33,13Z" transform="translate(-2.34 -1.38)"/><path class="cls-7" d="M505.91,214.08l-5.76.35c-2.51.17-3.51.65-1.75,4.75l.24.55-1.66.71-4.85-11.31,1.67-.71.27.64c.88,2,2.28,2.71,5.72,2.5l23.49-1.44,1-1,2.71,6.32-18,17.84c-2.34,2.32-2.79,3.62-2,5.92l-1.67.71-6-13.87,1.67-.71.64,1.49c1.12,2.6,2.43,2.49,4.16.74l4.09-4.13Zm14.24-.85-11.53.7,3.22,7.51Z" transform="translate(-2.34 -1.38)"/><path class="cls-7" d="M88.41,295.4l-8.09.13c-2.77,0-3.74.61-3.69,3.47v.13h-.81l-.17-10.69h.81v.26c0,2.51.74,3.35,3.16,3.31l18.74-.3c2.21,0,2.84-.77,3-3.11h.81l.16,10.14h-.81c0-3-.87-3.52-4.15-3.47l-7.41.12.27,16.69,8.39-.13c2.26,0,3.1-.77,3.05-3.41v-.81h.81l.18,10.94h-.81c-.13-2.55-.9-3.22-3.54-3.18l-17.67.28c-3,0-3.69.91-3.65,3.47v.43h-.81L76,307.61h.81l0,1.32c0,2.77,1,3.35,3.25,3.31l8.65-.14Z" transform="translate(-2.34 -1.38)"/><path class="cls-7" d="M89.33,343.22l-.13-.8c2.93-.81,3.15-1.66,2.87-3.38L91,331.93l-9,1.41c-1.94.3-2.2,1.08-2,2.64l1,6.48c.46,2.95,1.74,3.65,5.52,4.13l.12.76-6.38.31-3.51-22.34.8-.13.19,1.18c.53,3.37,1.55,3.81,4.07,3.41L99.62,327c2.36-.37,3.28-1.08,2.84-3.9l-.15-.93.8-.13,3.18,20.2-5.8,1.26-.12-.76c3.49-1.11,4.08-2.28,3.84-3.8l-1.4-8.88-10.35,1.63,1.18,7.53c.24,1.51,1.07,2.12,3.54,1.94l.13.8Z" transform="translate(-2.34 -1.38)"/><path class="cls-7" d="M95,358.13l-7.11-.51a12.07,12.07,0,0,0-2.81-.07c-1.11.32-1.21,1.5-.55,3.75l.19.65-.78.22-2.74-9.45.78-.23c.81,2.65,1.39,3,5.33,3.25l22.49,1.56.79-.63,1,3.56L91.37,375.36c-1.93,1.45-2.09,2.42-1.5,4.47l-.78.22L85.83,368.8l.78-.22.31,1.06c.68,2.33,1.17,3.12,2.31,2.79a4.74,4.74,0,0,0,1.55-.94l6.65-4.9Zm12.54.89L97,358.3l2,7.08Z" transform="translate(-2.34 -1.38)"/><path class="cls-7" d="M97.93,400.75l-7.48-17.51.74-.32.55,1.29c.77,1.8,1.64,2.22,3.64,1.36l17.35-7.42c2.08-.89,2.67-1.88,1.62-4.35l-.24-.55.74-.32,4.94,11.55-.74.32-.62-1.45c-1.09-2.55-1.65-3.09-4.08-2.06L96.3,389c-1.06.45-1.26,1-.78,2.19L98,397c1,2.31,2.19,2.63,6.65,3.64l.3.7Z" transform="translate(-2.34 -1.38)"/><path class="cls-7" d="M109.71,414.72c-2,1.12-2.34,2.18-1.08,4.45l.77,1.38-.71.39-6.52-11.72.71-.39.77,1.38c1.26,2.27,2.34,2.55,4.35,1.43l18.39-10.23-3.6-6.48c-.83-1.49-2.06-1.68-5.64-.42l-.37-.67,6.36-2.76.39.71a.64.64,0,0,0-.22.66,2.75,2.75,0,0,0,.3.81l10,17.9c.29.52.71,1,1.2.84l.39.71-5.7,4-.37-.67c3-2.38,3.45-3.53,2.62-5l-3.6-6.48Z" transform="translate(-2.34 -1.38)"/><path class="cls-7" d="M128.8,428.85l-6.44,4.9c-2.2,1.68-2.65,2.71-.92,5l.08.1-.64.49-6.48-8.5.64-.49.15.2c1.52,2,2.58,2.26,4.51.79L134.62,420c1.76-1.34,1.83-2.31.55-4.27l.64-.49,6.14,8.06-.64.49c-1.83-2.41-2.79-2.32-5.39-.33l-5.9,4.49,10.12,13.28,6.68-5.08c1.8-1.37,2-2.46.44-4.56l-.49-.64.64-.49,6.63,8.71-.64.49c-1.62-2-2.64-2.06-4.74-.46l-14.06,10.71c-2.41,1.83-2.43,2.92-.88,5l.26.34-.64.49-7.3-9.59.64-.49.8,1c1.68,2.2,2.82,2.08,4.58.74l6.88-5.24Z" transform="translate(-2.34 -1.38)"/><path class="cls-7" d="M167.2,457.47c2.61-.72,2.54-1.81.59-3.71l.57-.58,6.88,6.73-.57.58a5.9,5.9,0,0,0-6.16-1.32l-13.42,3.61-4.47,4.57c-1.58,1.61-1.62,2.82.23,4.64l.4.39-.56.58-8.38-8.19.57-.58.58.57c1.89,1.85,3.12,1.68,4.58.19l4.2-4.3,2.86-13.77c.8-3.81.52-4.92-1.4-6.91l.57-.58,8.1,7.92-.57.58c-2.38-2.32-3.09-1.89-3.55.4l-2.48,12.29Z" transform="translate(-2.34 -1.38)"/><path class="cls-7" d="M186.82,474.3c1.33-2,1.79-3.26-.7-4.9l-1.25-.82.44-.68c1,.62,3.57,2.09,4.62,2.73,2,1.22,4.73,3,5.41,3.4,3.13,2.06,5.57,4.32,6.24,6.09a5.41,5.41,0,0,1-.43,5.38,5.59,5.59,0,0,1-6.91,1.68l0,.07c2.69,3.2,3.22,6.65,1.4,9.43s-6.4,5.48-12.13,1.71l-13-8.56.44-.68.82.54c2.92,1.92,3.93,1.62,5.41-.63ZM180.74,490c-1.78,2.7-1.34,4.37,1.65,6.33,4.7,3.09,8,1.06,9.79-1.72s1.55-6.93-2.61-9.67l-3.84-2.53Zm5.43-8.26,3.88,2.55c3.42,2.25,6,2,7.84-.76,1.64-2.49,1.64-5.75-2.74-8.63-.78-.51-2.29-1.4-3.2-2Z" transform="translate(-2.34 -1.38)"/><path class="cls-7" d="M210.72,514.23c-7.56-3.54-11.65-11.38-8.27-18.6,3.6-7.67,12-10.35,20.26-6.5,7.29,3.42,11.21,11.32,8,18.26C227,515.19,218.2,517.74,210.72,514.23Zm10.54-24.6c-6.79-3.18-12.45,1.88-14.62,6.51-3.38,7.21-.86,14.6,5.35,17.51s11.9-1.2,14.46-6.68C229.8,499.8,227.62,492.61,221.25,489.63Z" transform="translate(-2.34 -1.38)"/><path class="cls-7" d="M239.84,501.74c.77-2.66.26-3.51-2.15-4.22l-.82-.24.23-.78c1.54.36,3.57.86,5.84,1.43s4.78,1.25,6.91,1.87c10.8,3.13,14,10,12,16.75-1.79,6.18-8.72,12.2-19.07,9.19L229.72,522l.22-.78.7.2c2.21.64,3.41.32,4.1-2.05ZM237.92,521c-.49,1.68-.53,2.29,2.7,3.22,5.48,1.59,8,1.47,11.27-.33a13.14,13.14,0,0,0,6-7.85,12.82,12.82,0,0,0-.72-9.75c-1.34-2.43-3.83-4.7-9.55-6.36-1.68-.49-2.82-.68-3.32-.78Z" transform="translate(-2.34 -1.38)"/><path class="cls-7" d="M284.41,511.46c1.7-2.11,1-2.95-1.69-3.36l.12-.8,9.52,1.44-.12.8a5.89,5.89,0,0,0-5.77,2.53l-8.79,10.77-1,6.32c-.34,2.23.33,3.24,2.9,3.63l.55.08-.12.8-11.58-1.76.12-.8.8.12c2.61.4,3.52-.46,3.83-2.52l.9-5.94-5.72-12.85c-1.57-3.56-2.45-4.29-5.17-4.79l.12-.8,11.2,1.7-.12.8c-3.28-.5-3.62.27-2.65,2.4l5.16,11.42Z" transform="translate(-2.34 -1.38)"/><path class="cls-7" d="M340.47,520.82l1.43,8c.49,2.73,1.21,3.59,4,3.09l.13,0,.14.8-10.52,1.89-.14-.8.25,0c2.47-.44,3.19-1.27,2.76-3.65l-3.31-18.45c-.39-2.18-1.22-2.68-3.55-2.43l-.14-.8,10-1.79.14.8c-3,.54-3.34,1.42-2.76,4.65l1.31,7.29,16.43-3-1.48-8.26c-.4-2.22-1.26-2.93-3.86-2.47l-.8.14-.14-.8L361.13,503l.14.8c-2.5.54-3,1.41-2.57,4l3.12,17.4c.53,3,1.49,3.5,4,3l.42-.08.14.8-11.86,2.13-.14-.8,1.3-.23c2.73-.49,3.14-1.56,2.75-3.74l-1.53-8.51Z" transform="translate(-2.34 -1.38)"/><path class="cls-7" d="M386.27,512.48l-.77.25c-1.27-2.77-2.14-2.84-3.8-2.29l-6.84,2.25,2.84,8.62c.61,1.86,1.42,2,2.92,1.51l6.23-2.05c2.83-.93,3.32-2.3,3.19-6.12l.73-.24,1.34,6.24-21.48,7.08-.25-.77,1.13-.37c3.24-1.07,3.51-2.14,2.71-4.57l-5.62-17.07c-.75-2.26-1.59-3.06-4.3-2.17l-.89.29-.25-.77,19.42-6.4,2.18,5.52-.73.24c-1.66-3.26-2.91-3.66-4.37-3.18l-8.54,2.81,3.28,10,7.24-2.38c1.46-.48,1.92-1.39,1.35-3.81l.77-.25Z" transform="translate(-2.34 -1.38)"/><path class="cls-7" d="M398.34,505.24l.59,7.1a12,12,0,0,0,.36,2.79c.49,1,1.67,1,3.79,0l.62-.29.34.73-8.91,4.16-.34-.73c2.49-1.21,2.72-1.83,2.38-5.77l-1.93-22.46-.74-.69,3.36-1.57,18.07,17.65c1.73,1.68,2.72,1.69,4.65.79l.34.73-10.61,5-.34-.73,1-.47c2.2-1,2.9-1.64,2.4-2.72a4.73,4.73,0,0,0-1.16-1.38l-5.87-5.82Zm-1.06-12.53.92,10.52,6.68-3.12Z" transform="translate(-2.34 -1.38)"/><path class="cls-7" d="M440,495.72l-16.14,10.11-.43-.69,1.19-.75c1.66-1,1.94-2,.78-3.81l-10-16c-1.2-1.91-2.27-2.34-4.55-.92l-.5.32-.43-.68,10.65-6.67.43.69-1.34.84c-2.34,1.47-2.8,2.11-1.4,4.35l10.42,16.64c.61,1,1.23,1.09,2.28.43l5.31-3.32c2.13-1.33,2.26-2.57,2.57-7.14l.65-.41Z" transform="translate(-2.34 -1.38)"/><path class="cls-7" d="M452,481.93c1.42,1.81,2.52,2,4.56.38l1.24-1,.5.64-10.57,8.26-.5-.64,1.24-1c2-1.6,2.15-2.71.74-4.52l-13-16.58-5.84,4.56c-1.34,1-1.34,2.29.46,5.64l-.6.47-3.71-5.86.64-.5a.64.64,0,0,0,.68.11,2.73,2.73,0,0,0,.75-.42l16.14-12.61c.47-.37.89-.86.65-1.32l.64-.5,4.78,5-.6.47c-2.81-2.56-4-2.86-5.36-1.81L439,465.35Z" transform="translate(-2.34 -1.38)"/><path class="cls-7" d="M463,460.88l5.84,5.6c2,1.92,3.09,2.19,5.06.13l.09-.09.59.56-7.4,7.72-.58-.56.18-.19c1.74-1.81,1.84-2.9.08-4.58l-13.53-13c-1.6-1.53-2.56-1.45-4.3.12l-.58-.56,7-7.32.58.56c-2.09,2.18-1.86,3.11.51,5.38l5.35,5.13,11.56-12.05L467.39,442c-1.63-1.56-2.74-1.63-4.57.28l-.56.59-.58-.56,7.57-7.9.59.56c-1.71,1.9-1.63,2.93.28,4.75l12.76,12.24c2.18,2.09,3.26,2,5,.11l.29-.31.58.56-8.34,8.7-.59-.56.91-1c1.92-2,1.62-3.11,0-4.64l-6.24-6Z" transform="translate(-2.34 -1.38)"/><path class="cls-7" d="M485.4,418.4c-1.12-2.47-2.18-2.23-3.76,0l-.66-.47,5.58-7.84.66.47a5.9,5.9,0,0,0-.34,6.29l5.66,12.7,5.21,3.7c1.84,1.31,3,1.17,4.54-1l.32-.45.66.47-6.79,9.55-.66-.47.47-.66c1.53-2.15,1.18-3.34-.52-4.55l-4.9-3.48-14-.68c-3.88-.2-4.94.25-6.61,2.46l-.66-.47,6.57-9.23.66.47c-1.92,2.71-1.39,3.35.95,3.44l12.52.54Z" transform="translate(-2.34 -1.38)"/><path class="cls-7" d="M524.29,393.68l-25.14,1.17,0,.08,17.21,8.52c2,1,3-.35,3.84-2.08l.75.32-3.45,8.16-.75-.31c1.21-2.86.73-3.48-2.76-5.19l-14.87-7.39c-2.52-1.25-3.26-1.47-4.45.89l-.71-.3,2.5-5.92,23.77-1.1-15.79-17.77,2.44-5.77.71.3c-.66,2-.93,2.75.44,3.24l18.3,6.26c3.71,1.29,3.84,1,5.05-1.89l.75.32-4.26,10.08-.75-.32c.78-1.84,1-3.86-1.11-4.59l-18.06-6.29,0,.08,16.78,18.61Z" transform="translate(-2.34 -1.38)"/><path class="cls-7" d="M535.86,360,533,370l-.78-.22c.59-2.58.09-3.29-2.66-4.07l-17.46-4.94c-2.21-.63-3,0-3.82,2.24l-.78-.22,2.82-10,.78.22c-.73,2.58-.41,3.65,2.34,4.42l17.38,4.91c2.42.68,3.42.26,4.22-2.57Z" transform="translate(-2.34 -1.38)"/><path class="cls-7" d="M542.41,327.46l-26.33,18.07,18,2.93c3,.49,3.77-.08,4.35-3.65l.8.13-1.59,9.75-.8-.13,0-.17c.42-2.61-.32-3.59-2.26-3.91L514,347.13a6.24,6.24,0,0,0-1.63,3.36l-.8-.13,1.07-6.6,23.86-16.45-16.73-2.72c-2.56-.42-3.15.26-3.78,3.61l-.8-.13,1.6-9.84.8.13c-.51,3.15-.07,3.91,1.56,4.18l23.46,3.81Z" transform="translate(-2.34 -1.38)"/><path class="cls-7" d="M520.89,313.66c-2.77,0-3.46.67-3.5,3.18v.85h-.81c-.06-1.58-.11-3.66-.16-6s0-4.94,0-7.16c.18-11.24,6-16.13,13-16,6.43.1,14.06,5.21,13.88,16l-.22,13.63h-.81v-.72c0-2.3-.58-3.37-3.05-3.41ZM540,310.44c1.75,0,2.34-.09,2.4-3.45.09-5.71-.68-8.1-3.28-10.79a13.14,13.14,0,0,0-9.14-3.68,12.82,12.82,0,0,0-9.21,3.26c-2,1.93-3.53,4.93-3.63,10.89,0,1.75.08,2.9.11,3.41Z" transform="translate(-2.34 -1.38)"/><circle class="cls-8" cx="523.3" cy="260.27" r="6.19"/><circle class="cls-8" cx="89.83" cy="259.58" r="6.19"/><circle class="cls-8" cx="306.46" cy="520.46" r="6.19"/><path class="cls-9" d="M308.09,202.31h1.45c3.4,3.89,8.72,5.85,10.93,10.92-3.12,4.9-6.48,9.55-11.66,12.39-3.51-3.77-8.13-6.43-10.92-10.93C300.65,209.92,304.9,206.65,308.09,202.31Z" transform="translate(-2.34 -1.38)"/><path class="cls-9" d="M335.77,214c6.13,5.77,11.22,12.57,17.48,18.21-10.2,8.36-21.69,18-38.61,16-15.3-1.81-23.89-14.28-32-23.3,9.7,1.2,19.3,8.73,32,6.55C325,229.68,330.54,220.92,335.77,214Z" transform="translate(-2.34 -1.38)"/><path class="cls-9" d="M406.41,315.93a73.11,73.11,0,0,1,0,12.39c.44,34.39-45.3,39.69-64.09,15.3-5.29-6.86-7.06-15.2-9.47-23.31,10.37,5.79,22.51,16.23,38.6,14.57,24-2.48,26.52-27.65,14.56-47.34-3.82-6.29-10.79-16-23.3-14.56-21.88,2.48-16.8,28.51-46.79,36,1.57,3.49,4.34,8.93,6.73,15,13.6,34.62-8.58,67.08-42.24,69.92a71.41,71.41,0,0,1-11.65,0c-31.51-4.66-47.95-19.75-58.19-47,0-.49-.81-3.53-.81-4,15.59,10.51,25.81,25.81,52.44,25.5,21.36-.25,41.37-18.71,40.79-39.33-.56-19.88-23.27-22.48-40.06-14.56-2.38-8.68-3.67-15.28-5.83-24,12.85-2.21,28.59-8.63,25.49-24-1.46-7.27-11-12.25-22.58-10.2-13.42,2.39-23.08,15.19-30.59,24.77-4-7-7.47-12.63-11.65-20.4,14.15-23.71,44.33-38.71,71.38-21.12,15.25,9.92,10.47,37.22.73,49.53a43.43,43.43,0,0,1,14.57,10.2c25.9-14.72,22.33-60.68,61.18-59.72C397.7,240.24,406.06,310.28,406.41,315.93Z" transform="translate(-2.34 -1.38)"/></svg>